<svg xmlns="http://www.w3.org/2000/svg" width="92" height="17" fill="none"><g clip-path="url(#a)" opacity=".6"><path fill="#282B22" d="M.246.632c.876.062.983.283.983.564v14.608c0 .28-.108.499-.984.561v.38h7.229v-.38c-.878-.062-.98-.28-.98-.561V1.196c0-.28.102-.502.98-.564V.255H.246v.377Zm23.948 0c.455.032.736.188.736.564v8.369c-2.454-2.415-8.521-8.18-8.521-8.527 0-.185.174-.374.98-.406V.255H8.935v.377c.878.062.981.283.981.564v14.608c0 .28-.103.499-.98.561v.38h6.666v-.38c-.88-.062-.984-.28-.984-.561V5.96c9.26 9.25 10.138 9.655 10.138 10.063 0 .219-.177.343-.81.343v.38h6.667v-.38c-.877-.063-.98-.28-.98-.562V1.196c0-.28.103-.502.98-.564V.255h-6.419v.377ZM52.77 8.5c0-5.486-4.978-8.43-10.943-8.43S30.884 3.013 30.884 8.5c0 5.484 4.977 8.43 10.942 8.43s10.943-2.945 10.943-8.43Zm-10.943 4.607c-3.048 0-5.754-1.66-5.754-4.606 0-2.947 2.706-4.608 5.754-4.608 3.053 0 5.752 1.661 5.752 4.608 0 2.947-2.7 4.606-5.752 4.606Zm48.945 2.32c-2.174-4.764-6.487-14.138-6.487-14.389 0-.31.246-.374.634-.406V.255h-9.161v.377c.318.032.703.096.703.313 0 .175-5.072 11.992-6.077 14.325L64.09 8.153l6.455-7.145c.175-.188.491-.344.876-.376V.255H63.39v.377c.281 0 .736.062.736.406 0 .284-2.703 2.95-3.227 3.575-.352-.437-3.229-3.356-3.229-3.575 0-.31.282-.374.844-.406V.255h-8.208v.377c.208 0 .488.062.803.406l6.525 7.337-7.015 7.46c-.352.373-.56.53-.806.53v.38h8.1v-.38c-.28 0-.84 0-.84-.343 0-.436 3.263-3.478 3.751-4.106 1.475 1.724 3.475 3.95 3.475 4.292 0 .157-.318.157-.665.157v.38H75.51v-.38c-.49 0-.631-.124-.631-.31 0-.19.213-.595 1.123-2.887h8.312c.14.409 1.194 2.698 1.194 2.822 0 .19-.174.343-.666.375v.38h6.91v-.38c-.42 0-.63-.184-.982-.937Zm-13.89-4.764 3.121-7.461 3.404 7.461H76.88Z" opacity=".5"/></g><defs><clipPath id="a"><path fill="#fff" d="M0 0h92v17H0z"/></clipPath></defs></svg>